# Tiled2Unity generated file. Do not modify by hand.
# Wavefront file for 'seatest_mesh_0002.obj'

# Vertices (Count = 128)
v -43 -24 0
v -44 -24 0
v -44 -23 0
v -43 -23 0
v -44 -24 0
v -45 -24 0
v -45 -23 0
v -44 -23 0
v -45 -24 0
v -46 -24 0
v -46 -23 0
v -45 -23 0
v -46 -24 0
v -47 -24 0
v -47 -23 0
v -46 -23 0
v -43 -25 0
v -44 -25 0
v -44 -24 0
v -43 -24 0
v -44 -25 0
v -45 -25 0
v -45 -24 0
v -44 -24 0
v -45 -25 0
v -46 -25 0
v -46 -24 0
v -45 -24 0
v -46 -25 0
v -47 -25 0
v -47 -24 0
v -46 -24 0
v -43 -26 0
v -44 -26 0
v -44 -25 0
v -43 -25 0
v -44 -26 0
v -45 -26 0
v -45 -25 0
v -44 -25 0
v -45 -26 0
v -46 -26 0
v -46 -25 0
v -45 -25 0
v -46 -26 0
v -47 -26 0
v -47 -25 0
v -46 -25 0
v -43 -27 0
v -44 -27 0
v -44 -26 0
v -43 -26 0
v -44 -27 0
v -45 -27 0
v -45 -26 0
v -44 -26 0
v -45 -27 0
v -46 -27 0
v -46 -26 0
v -45 -26 0
v -46 -27 0
v -47 -27 0
v -47 -26 0
v -46 -26 0
v -43 -28 0
v -44 -28 0
v -44 -27 0
v -43 -27 0
v -44 -28 0
v -45 -28 0
v -45 -27 0
v -44 -27 0
v -45 -28 0
v -46 -28 0
v -46 -27 0
v -45 -27 0
v -46 -28 0
v -47 -28 0
v -47 -27 0
v -46 -27 0
v -43 -29 0
v -44 -29 0
v -44 -28 0
v -43 -28 0
v -44 -29 0
v -45 -29 0
v -45 -28 0
v -44 -28 0
v -45 -29 0
v -46 -29 0
v -46 -28 0
v -45 -28 0
v -46 -29 0
v -47 -29 0
v -47 -28 0
v -46 -28 0
v -43 -30 0
v -44 -30 0
v -44 -29 0
v -43 -29 0
v -44 -30 0
v -45 -30 0
v -45 -29 0
v -44 -29 0
v -45 -30 0
v -46 -30 0
v -46 -29 0
v -45 -29 0
v -46 -30 0
v -47 -30 0
v -47 -29 0
v -46 -29 0
v -43 -31 0
v -44 -31 0
v -44 -30 0
v -43 -30 0
v -44 -31 0
v -45 -31 0
v -45 -30 0
v -44 -30 0
v -45 -31 0
v -46 -31 0
v -46 -30 0
v -45 -30 0
v -46 -31 0
v -47 -31 0
v -47 -30 0
v -46 -30 0

# Texture cooridinates (Count = 48)
vt 0.2001221 0.3462759
vt 0.2248779 0.3462759
vt 0.2248779 0.3844933
vt 0.2001221 0.3844933
vt 0.2251221 0.3462759
vt 0.2498779 0.3462759
vt 0.2498779 0.3844933
vt 0.2251221 0.3844933
vt 0.2501221 0.3462759
vt 0.2748779 0.3462759
vt 0.2748779 0.3844933
vt 0.2501221 0.3844933
vt 0.3251221 0.3462759
vt 0.3498779 0.3462759
vt 0.3498779 0.3844933
vt 0.3251221 0.3844933
vt 0.2001221 0.423199
vt 0.2248779 0.423199
vt 0.2248779 0.4614164
vt 0.2001221 0.4614164
vt 0.2251221 0.423199
vt 0.2498779 0.423199
vt 0.2498779 0.4614164
vt 0.2251221 0.4614164
vt 0.2501221 0.423199
vt 0.2748779 0.423199
vt 0.2748779 0.4614164
vt 0.2501221 0.4614164
vt 0.3251221 0.423199
vt 0.3498779 0.423199
vt 0.3498779 0.4614164
vt 0.3251221 0.4614164
vt 0.2001221 0.3847374
vt 0.2248779 0.3847374
vt 0.2248779 0.4229549
vt 0.2001221 0.4229549
vt 0.2251221 0.3847374
vt 0.2498779 0.3847374
vt 0.2498779 0.4229549
vt 0.2251221 0.4229549
vt 0.2501221 0.3847374
vt 0.2748779 0.3847374
vt 0.2748779 0.4229549
vt 0.2501221 0.4229549
vt 0.3251221 0.3847374
vt 0.3498779 0.3847374
vt 0.3498779 0.4229549
vt 0.3251221 0.4229549

# Normal
vn 0 0 -1

# Mesh description
g seatest_mesh_0002

# Faces
f 1/1/1 2/2/1 3/3/1 4/4/1
f 5/5/1 6/6/1 7/7/1 8/8/1
f 9/9/1 10/10/1 11/11/1 12/12/1
f 13/13/1 14/14/1 15/15/1 16/16/1
f 17/17/1 18/18/1 19/19/1 20/20/1
f 21/21/1 22/22/1 23/23/1 24/24/1
f 25/25/1 26/26/1 27/27/1 28/28/1
f 29/29/1 30/30/1 31/31/1 32/32/1
f 33/33/1 34/34/1 35/35/1 36/36/1
f 37/21/1 38/22/1 39/23/1 40/24/1
f 41/25/1 42/26/1 43/27/1 44/28/1
f 45/29/1 46/30/1 47/31/1 48/32/1
f 49/1/1 50/2/1 51/3/1 52/4/1
f 53/37/1 54/38/1 55/39/1 56/40/1
f 57/41/1 58/42/1 59/43/1 60/44/1
f 61/45/1 62/46/1 63/47/1 64/48/1
f 65/1/1 66/2/1 67/3/1 68/4/1
f 69/37/1 70/38/1 71/39/1 72/40/1
f 73/41/1 74/42/1 75/43/1 76/44/1
f 77/45/1 78/46/1 79/47/1 80/48/1
f 81/1/1 82/2/1 83/3/1 84/4/1
f 85/37/1 86/38/1 87/39/1 88/40/1
f 89/41/1 90/42/1 91/43/1 92/44/1
f 93/45/1 94/46/1 95/47/1 96/48/1
f 97/1/1 98/2/1 99/3/1 100/4/1
f 101/5/1 102/6/1 103/7/1 104/8/1
f 105/9/1 106/10/1 107/11/1 108/12/1
f 109/13/1 110/14/1 111/15/1 112/16/1
f 113/1/1 114/2/1 115/3/1 116/4/1
f 117/5/1 118/6/1 119/7/1 120/8/1
f 121/9/1 122/10/1 123/11/1 124/12/1
f 125/13/1 126/14/1 127/15/1 128/16/1

