# Tiled2Unity generated file. Do not modify by hand.
# Wavefront file for 'starting_forest_mesh_0002.obj'

# Vertices (Count = 172)
v -13 -7 0
v -14 -7 0
v -14 -6 0
v -13 -6 0
v -14 -7 0
v -15 -7 0
v -15 -6 0
v -14 -6 0
v -20 -8 0
v -21 -8 0
v -21 -7 0
v -20 -7 0
v -9 -9 0
v -10 -9 0
v -10 -8 0
v -9 -8 0
v -10 -9 0
v -11 -9 0
v -11 -8 0
v -10 -8 0
v -20 -9 0
v -21 -9 0
v -21 -8 0
v -20 -8 0
v -21 -9 0
v -22 -9 0
v -22 -8 0
v -21 -8 0
v -22 -9 0
v -23 -9 0
v -23 -8 0
v -22 -8 0
v -23 -9 0
v -24 -9 0
v -24 -8 0
v -23 -8 0
v -15 -11 0
v -16 -11 0
v -16 -10 0
v -15 -10 0
v -16 -11 0
v -17 -11 0
v -17 -10 0
v -16 -10 0
v -10 -12 0
v -11 -12 0
v -11 -11 0
v -10 -11 0
v -11 -12 0
v -12 -12 0
v -12 -11 0
v -11 -11 0
v -17 -15 0
v -18 -15 0
v -18 -14 0
v -17 -14 0
v -18 -15 0
v -19 -15 0
v -19 -14 0
v -18 -14 0
v -33 -15 0
v -34 -15 0
v -34 -14 0
v -33 -14 0
v -34 -15 0
v -35 -15 0
v -35 -14 0
v -34 -14 0
v -24 -16 0
v -25 -16 0
v -25 -15 0
v -24 -15 0
v -25 -16 0
v -26 -16 0
v -26 -15 0
v -25 -15 0
v -33 -16 0
v -34 -16 0
v -34 -15 0
v -33 -15 0
v -34 -16 0
v -35 -16 0
v -35 -15 0
v -34 -15 0
v -70 -16 0
v -71 -16 0
v -71 -15 0
v -70 -15 0
v -71 -16 0
v -72 -16 0
v -72 -15 0
v -71 -15 0
v -24 -17 0
v -25 -17 0
v -25 -16 0
v -24 -16 0
v -25 -17 0
v -26 -17 0
v -26 -16 0
v -25 -16 0
v -70 -17 0
v -71 -17 0
v -71 -16 0
v -70 -16 0
v -71 -17 0
v -72 -17 0
v -72 -16 0
v -71 -16 0
v -18 -20 0
v -19 -20 0
v -19 -19 0
v -18 -19 0
v -19 -20 0
v -20 -20 0
v -20 -19 0
v -19 -19 0
v -18 -21 0
v -19 -21 0
v -19 -20 0
v -18 -20 0
v -19 -21 0
v -20 -21 0
v -20 -20 0
v -19 -20 0
v -12 -26 0
v -13 -26 0
v -13 -25 0
v -12 -25 0
v -13 -26 0
v -14 -26 0
v -14 -25 0
v -13 -25 0
v -12 -27 0
v -13 -27 0
v -13 -26 0
v -12 -26 0
v -13 -27 0
v -14 -27 0
v -14 -26 0
v -13 -26 0
v -50 -31 0
v -51 -31 0
v -51 -30 0
v -50 -30 0
v -51 -31 0
v -52 -31 0
v -52 -30 0
v -51 -30 0
v -50 -32 0
v -51 -32 0
v -51 -31 0
v -50 -31 0
v -51 -32 0
v -52 -32 0
v -52 -31 0
v -51 -31 0
v -42 -38 0
v -43 -38 0
v -43 -37 0
v -42 -37 0
v -43 -38 0
v -44 -38 0
v -44 -37 0
v -43 -37 0
v -42 -39 0
v -43 -39 0
v -43 -38 0
v -42 -38 0
v -43 -39 0
v -44 -39 0
v -44 -38 0
v -43 -38 0

# Texture cooridinates (Count = 76)
vt 0.2501221 0.2308913
vt 0.2748779 0.2308913
vt 0.2748779 0.2691087
vt 0.2501221 0.2691087
vt 0.2751221 0.2308913
vt 0.2998779 0.2308913
vt 0.2998779 0.2691087
vt 0.2751221 0.2691087
vt 0.0001220703 0.8078144
vt 0.02487793 0.8078144
vt 0.02487793 0.8460318
vt 0.0001220703 0.8460318
vt 0.0001220703 0.7693529
vt 0.02487793 0.7693529
vt 0.02487793 0.8075702
vt 0.0001220703 0.8075702
vt 0.02512207 0.7693529
vt 0.04987793 0.7693529
vt 0.04987793 0.8075702
vt 0.02512207 0.8075702
vt 0.05012207 0.7693529
vt 0.07487793 0.7693529
vt 0.07487793 0.8075702
vt 0.05012207 0.8075702
vt 0.07512207 0.7693529
vt 0.09987793 0.7693529
vt 0.09987793 0.8075702
vt 0.07512207 0.8075702
vt 0.0001220703 0.2693529
vt 0.02487793 0.2693529
vt 0.02487793 0.3075702
vt 0.0001220703 0.3075702
vt 0.02512207 0.2693529
vt 0.04987793 0.2693529
vt 0.04987793 0.3075702
vt 0.02512207 0.3075702
vt 0.6751221 0.923199
vt 0.6998779 0.923199
vt 0.6998779 0.9614164
vt 0.6751221 0.9614164
vt 0.7001221 0.923199
vt 0.724878 0.923199
vt 0.724878 0.9614164
vt 0.7001221 0.9614164
vt 0.0001220703 0.2308913
vt 0.02487793 0.2308913
vt 0.02487793 0.2691087
vt 0.0001220703 0.2691087
vt 0.02512207 0.2308913
vt 0.04987793 0.2308913
vt 0.04987793 0.2691087
vt 0.02512207 0.2691087
vt 0.6751221 0.8847374
vt 0.6998779 0.8847374
vt 0.6998779 0.9229549
vt 0.6751221 0.9229549
vt 0.7001221 0.8847374
vt 0.724878 0.8847374
vt 0.724878 0.9229549
vt 0.7001221 0.9229549
vt 0.2001221 0.2693529
vt 0.2248779 0.2693529
vt 0.2248779 0.3075702
vt 0.2001221 0.3075702
vt 0.2251221 0.2693529
vt 0.2498779 0.2693529
vt 0.2498779 0.3075702
vt 0.2251221 0.3075702
vt 0.2001221 0.2308913
vt 0.2248779 0.2308913
vt 0.2248779 0.2691087
vt 0.2001221 0.2691087
vt 0.2251221 0.2308913
vt 0.2498779 0.2308913
vt 0.2498779 0.2691087
vt 0.2251221 0.2691087

# Normal
vn 0 0 -1

# Mesh description
g starting_forest_mesh_0002

# Faces
f 1/1/1 2/2/1 3/3/1 4/4/1
f 5/5/1 6/6/1 7/7/1 8/8/1
f 9/9/1 10/10/1 11/11/1 12/12/1
f 13/1/1 14/2/1 15/3/1 16/4/1
f 17/5/1 18/6/1 19/7/1 20/8/1
f 21/13/1 22/14/1 23/15/1 24/16/1
f 25/17/1 26/18/1 27/19/1 28/20/1
f 29/21/1 30/22/1 31/23/1 32/24/1
f 33/25/1 34/26/1 35/27/1 36/28/1
f 37/1/1 38/2/1 39/3/1 40/4/1
f 41/5/1 42/6/1 43/7/1 44/8/1
f 45/1/1 46/2/1 47/3/1 48/4/1
f 49/5/1 50/6/1 51/7/1 52/8/1
f 53/1/1 54/2/1 55/3/1 56/4/1
f 57/5/1 58/6/1 59/7/1 60/8/1
f 61/29/1 62/30/1 63/31/1 64/32/1
f 65/33/1 66/34/1 67/35/1 68/36/1
f 69/37/1 70/38/1 71/39/1 72/40/1
f 73/41/1 74/42/1 75/43/1 76/44/1
f 77/45/1 78/46/1 79/47/1 80/48/1
f 81/49/1 82/50/1 83/51/1 84/52/1
f 85/29/1 86/30/1 87/31/1 88/32/1
f 89/33/1 90/34/1 91/35/1 92/36/1
f 93/53/1 94/54/1 95/55/1 96/56/1
f 97/57/1 98/58/1 99/59/1 100/60/1
f 101/45/1 102/46/1 103/47/1 104/48/1
f 105/49/1 106/50/1 107/51/1 108/52/1
f 109/61/1 110/62/1 111/63/1 112/64/1
f 113/65/1 114/66/1 115/67/1 116/68/1
f 117/69/1 118/70/1 119/71/1 120/72/1
f 121/73/1 122/74/1 123/75/1 124/76/1
f 125/29/1 126/30/1 127/31/1 128/32/1
f 129/33/1 130/34/1 131/35/1 132/36/1
f 133/45/1 134/46/1 135/47/1 136/48/1
f 137/49/1 138/50/1 139/51/1 140/52/1
f 141/37/1 142/38/1 143/39/1 144/40/1
f 145/41/1 146/42/1 147/43/1 148/44/1
f 149/53/1 150/54/1 151/55/1 152/56/1
f 153/57/1 154/58/1 155/59/1 156/60/1
f 157/29/1 158/30/1 159/31/1 160/32/1
f 161/33/1 162/34/1 163/35/1 164/36/1
f 165/45/1 166/46/1 167/47/1 168/48/1
f 169/49/1 170/50/1 171/51/1 172/52/1

