# Tiled2Unity generated file. Do not modify by hand.
# Wavefront file for 'Island-Test_mesh_0013.obj'

# Vertices (Count = 136)
v -201 -64 0
v -202 -64 0
v -202 -63 0
v -201 -63 0
v -169 -65 0
v -170 -65 0
v -170 -64 0
v -169 -64 0
v -218 -69 0
v -219 -69 0
v -219 -68 0
v -218 -68 0
v -176 -76 0
v -177 -76 0
v -177 -75 0
v -176 -75 0
v -178 -81 0
v -179 -81 0
v -179 -80 0
v -178 -80 0
v -62 -84 0
v -63 -84 0
v -63 -83 0
v -62 -83 0
v -77 -87 0
v -78 -87 0
v -78 -86 0
v -77 -86 0
v -190 -87 0
v -191 -87 0
v -191 -86 0
v -190 -86 0
v -191 -87 0
v -192 -87 0
v -192 -86 0
v -191 -86 0
v -158 -88 0
v -159 -88 0
v -159 -87 0
v -158 -87 0
v -194 -88 0
v -195 -88 0
v -195 -87 0
v -194 -87 0
v -70 -93 0
v -71 -93 0
v -71 -92 0
v -70 -92 0
v -89 -101 0
v -90 -101 0
v -90 -100 0
v -89 -100 0
v -213 -103 0
v -214 -103 0
v -214 -102 0
v -213 -102 0
v -59 -106 0
v -60 -106 0
v -60 -105 0
v -59 -105 0
v -158 -106 0
v -159 -106 0
v -159 -105 0
v -158 -105 0
v -159 -106 0
v -160 -106 0
v -160 -105 0
v -159 -105 0
v -165 -110 0
v -166 -110 0
v -166 -109 0
v -165 -109 0
v -166 -110 0
v -167 -110 0
v -167 -109 0
v -166 -109 0
v -110 -118 0
v -111 -118 0
v -111 -117 0
v -110 -117 0
v -227 -126 0
v -228 -126 0
v -228 -125 0
v -227 -125 0
v -126 -130 0
v -127 -130 0
v -127 -129 0
v -126 -129 0
v -141 -130 0
v -142 -130 0
v -142 -129 0
v -141 -129 0
v -65 -135 0
v -66 -135 0
v -66 -134 0
v -65 -134 0
v -59 -136 0
v -60 -136 0
v -60 -135 0
v -59 -135 0
v -130 -139 0
v -131 -139 0
v -131 -138 0
v -130 -138 0
v -214 -146 0
v -215 -146 0
v -215 -145 0
v -214 -145 0
v -66 -152 0
v -67 -152 0
v -67 -151 0
v -66 -151 0
v -86 -179 0
v -87 -179 0
v -87 -178 0
v -86 -178 0
v -176 -181 0
v -177 -181 0
v -177 -180 0
v -176 -180 0
v -186 -181 0
v -187 -181 0
v -187 -180 0
v -186 -180 0
v -116 -200 0
v -117 -200 0
v -117 -199 0
v -116 -199 0
v -109 -209 0
v -110 -209 0
v -110 -208 0
v -109 -208 0
v -157 -217 0
v -158 -217 0
v -158 -216 0
v -157 -216 0

# Texture cooridinates (Count = 4)
vt 0.0001220703 0.0001220703
vt 0.9998779 0.0001220703
vt 0.9998779 0.9998779
vt 0.0001220703 0.9998779

# Normal
vn 0 0 -1

# Mesh description
g Island-Test_mesh_0013

# Faces
f 1/1/1 2/2/1 3/3/1 4/4/1
f 5/1/1 6/2/1 7/3/1 8/4/1
f 9/1/1 10/2/1 11/3/1 12/4/1
f 13/1/1 14/2/1 15/3/1 16/4/1
f 17/1/1 18/2/1 19/3/1 20/4/1
f 21/1/1 22/2/1 23/3/1 24/4/1
f 25/1/1 26/2/1 27/3/1 28/4/1
f 29/1/1 30/2/1 31/3/1 32/4/1
f 33/1/1 34/2/1 35/3/1 36/4/1
f 37/1/1 38/2/1 39/3/1 40/4/1
f 41/1/1 42/2/1 43/3/1 44/4/1
f 45/1/1 46/2/1 47/3/1 48/4/1
f 49/1/1 50/2/1 51/3/1 52/4/1
f 53/1/1 54/2/1 55/3/1 56/4/1
f 57/1/1 58/2/1 59/3/1 60/4/1
f 61/1/1 62/2/1 63/3/1 64/4/1
f 65/1/1 66/2/1 67/3/1 68/4/1
f 69/1/1 70/2/1 71/3/1 72/4/1
f 73/1/1 74/2/1 75/3/1 76/4/1
f 77/1/1 78/2/1 79/3/1 80/4/1
f 81/1/1 82/2/1 83/3/1 84/4/1
f 85/1/1 86/2/1 87/3/1 88/4/1
f 89/1/1 90/2/1 91/3/1 92/4/1
f 93/1/1 94/2/1 95/3/1 96/4/1
f 97/1/1 98/2/1 99/3/1 100/4/1
f 101/1/1 102/2/1 103/3/1 104/4/1
f 105/1/1 106/2/1 107/3/1 108/4/1
f 109/1/1 110/2/1 111/3/1 112/4/1
f 113/1/1 114/2/1 115/3/1 116/4/1
f 117/1/1 118/2/1 119/3/1 120/4/1
f 121/1/1 122/2/1 123/3/1 124/4/1
f 125/1/1 126/2/1 127/3/1 128/4/1
f 129/1/1 130/2/1 131/3/1 132/4/1
f 133/1/1 134/2/1 135/3/1 136/4/1

