# Tiled2Unity generated file. Do not modify by hand.
# Wavefront file for 'Island-Test_mesh_0023.obj'

# Vertices (Count = 248)
v -65 -214 0
v -66 -214 0
v -66 -213 0
v -65 -213 0
v -61 -215 0
v -62 -215 0
v -62 -214 0
v -61 -214 0
v -62 -215 0
v -63 -215 0
v -63 -214 0
v -62 -214 0
v -63 -215 0
v -64 -215 0
v -64 -214 0
v -63 -214 0
v -64 -215 0
v -65 -215 0
v -65 -214 0
v -64 -214 0
v -65 -215 0
v -66 -215 0
v -66 -214 0
v -65 -214 0
v -66 -215 0
v -67 -215 0
v -67 -214 0
v -66 -214 0
v -67 -215 0
v -68 -215 0
v -68 -214 0
v -67 -214 0
v -68 -215 0
v -69 -215 0
v -69 -214 0
v -68 -214 0
v -69 -215 0
v -70 -215 0
v -70 -214 0
v -69 -214 0
v -70 -215 0
v -71 -215 0
v -71 -214 0
v -70 -214 0
v -61 -216 0
v -62 -216 0
v -62 -215 0
v -61 -215 0
v -62 -216 0
v -63 -216 0
v -63 -215 0
v -62 -215 0
v -63 -216 0
v -64 -216 0
v -64 -215 0
v -63 -215 0
v -64 -216 0
v -65 -216 0
v -65 -215 0
v -64 -215 0
v -65 -216 0
v -66 -216 0
v -66 -215 0
v -65 -215 0
v -66 -216 0
v -67 -216 0
v -67 -215 0
v -66 -215 0
v -67 -216 0
v -68 -216 0
v -68 -215 0
v -67 -215 0
v -68 -216 0
v -69 -216 0
v -69 -215 0
v -68 -215 0
v -69 -216 0
v -70 -216 0
v -70 -215 0
v -69 -215 0
v -70 -216 0
v -71 -216 0
v -71 -215 0
v -70 -215 0
v -61 -217 0
v -62 -217 0
v -62 -216 0
v -61 -216 0
v -62 -217 0
v -63 -217 0
v -63 -216 0
v -62 -216 0
v -63 -217 0
v -64 -217 0
v -64 -216 0
v -63 -216 0
v -64 -217 0
v -65 -217 0
v -65 -216 0
v -64 -216 0
v -65 -217 0
v -66 -217 0
v -66 -216 0
v -65 -216 0
v -66 -217 0
v -67 -217 0
v -67 -216 0
v -66 -216 0
v -67 -217 0
v -68 -217 0
v -68 -216 0
v -67 -216 0
v -68 -217 0
v -69 -217 0
v -69 -216 0
v -68 -216 0
v -69 -217 0
v -70 -217 0
v -70 -216 0
v -69 -216 0
v -70 -217 0
v -71 -217 0
v -71 -216 0
v -70 -216 0
v -61 -218 0
v -62 -218 0
v -62 -217 0
v -61 -217 0
v -62 -218 0
v -63 -218 0
v -63 -217 0
v -62 -217 0
v -63 -218 0
v -64 -218 0
v -64 -217 0
v -63 -217 0
v -64 -218 0
v -65 -218 0
v -65 -217 0
v -64 -217 0
v -65 -218 0
v -66 -218 0
v -66 -217 0
v -65 -217 0
v -66 -218 0
v -67 -218 0
v -67 -217 0
v -66 -217 0
v -67 -218 0
v -68 -218 0
v -68 -217 0
v -67 -217 0
v -68 -218 0
v -69 -218 0
v -69 -217 0
v -68 -217 0
v -69 -218 0
v -70 -218 0
v -70 -217 0
v -69 -217 0
v -70 -218 0
v -71 -218 0
v -71 -217 0
v -70 -217 0
v -61 -219 0
v -62 -219 0
v -62 -218 0
v -61 -218 0
v -62 -219 0
v -63 -219 0
v -63 -218 0
v -62 -218 0
v -63 -219 0
v -64 -219 0
v -64 -218 0
v -63 -218 0
v -64 -219 0
v -65 -219 0
v -65 -218 0
v -64 -218 0
v -65 -219 0
v -66 -219 0
v -66 -218 0
v -65 -218 0
v -66 -219 0
v -67 -219 0
v -67 -218 0
v -66 -218 0
v -67 -219 0
v -68 -219 0
v -68 -218 0
v -67 -218 0
v -68 -219 0
v -69 -219 0
v -69 -218 0
v -68 -218 0
v -69 -219 0
v -70 -219 0
v -70 -218 0
v -69 -218 0
v -70 -219 0
v -71 -219 0
v -71 -218 0
v -70 -218 0
v -61 -220 0
v -62 -220 0
v -62 -219 0
v -61 -219 0
v -62 -220 0
v -63 -220 0
v -63 -219 0
v -62 -219 0
v -63 -220 0
v -64 -220 0
v -64 -219 0
v -63 -219 0
v -64 -220 0
v -65 -220 0
v -65 -219 0
v -64 -219 0
v -65 -220 0
v -66 -220 0
v -66 -219 0
v -65 -219 0
v -66 -220 0
v -67 -220 0
v -67 -219 0
v -66 -219 0
v -67 -220 0
v -68 -220 0
v -68 -219 0
v -67 -219 0
v -68 -220 0
v -69 -220 0
v -69 -219 0
v -68 -219 0
v -69 -220 0
v -70 -220 0
v -70 -219 0
v -69 -219 0
v -70 -220 0
v -71 -220 0
v -71 -219 0
v -70 -219 0
v -65 -221 0
v -66 -221 0
v -66 -220 0
v -65 -220 0

# Texture cooridinates (Count = 248)
vt 0.3078144 0.7001221
vt 0.3844933 0.7001221
vt 0.3844933 0.7998779
vt 0.3078144 0.7998779
vt 0.0001220703 0.6001221
vt 0.07680101 0.6001221
vt 0.07680101 0.6998779
vt 0.0001220703 0.6998779
vt 0.07704515 0.6001221
vt 0.1537241 0.6001221
vt 0.1537241 0.6998779
vt 0.07704515 0.6998779
vt 0.1539682 0.6001221
vt 0.2306472 0.6001221
vt 0.2306472 0.6998779
vt 0.1539682 0.6998779
vt 0.2308913 0.6001221
vt 0.3075702 0.6001221
vt 0.3075702 0.6998779
vt 0.2308913 0.6998779
vt 0.3078144 0.6001221
vt 0.3844933 0.6001221
vt 0.3844933 0.6998779
vt 0.3078144 0.6998779
vt 0.3847375 0.6001221
vt 0.4614164 0.6001221
vt 0.4614164 0.6998779
vt 0.3847375 0.6998779
vt 0.4616605 0.6001221
vt 0.5383395 0.6001221
vt 0.5383395 0.6998779
vt 0.4616605 0.6998779
vt 0.5385836 0.6001221
vt 0.6152626 0.6001221
vt 0.6152626 0.6998779
vt 0.5385836 0.6998779
vt 0.6155067 0.6001221
vt 0.6921856 0.6001221
vt 0.6921856 0.6998779
vt 0.6155067 0.6998779
vt 0.6924298 0.6001221
vt 0.7691087 0.6001221
vt 0.7691087 0.6998779
vt 0.6924298 0.6998779
vt 0.0001220703 0.5001221
vt 0.07680101 0.5001221
vt 0.07680101 0.599878
vt 0.0001220703 0.599878
vt 0.07704515 0.5001221
vt 0.1537241 0.5001221
vt 0.1537241 0.599878
vt 0.07704515 0.599878
vt 0.1539682 0.5001221
vt 0.2306472 0.5001221
vt 0.2306472 0.599878
vt 0.1539682 0.599878
vt 0.2308913 0.5001221
vt 0.3075702 0.5001221
vt 0.3075702 0.599878
vt 0.2308913 0.599878
vt 0.3078144 0.5001221
vt 0.3844933 0.5001221
vt 0.3844933 0.599878
vt 0.3078144 0.599878
vt 0.3847375 0.5001221
vt 0.4614164 0.5001221
vt 0.4614164 0.599878
vt 0.3847375 0.599878
vt 0.4616605 0.5001221
vt 0.5383395 0.5001221
vt 0.5383395 0.599878
vt 0.4616605 0.599878
vt 0.5385836 0.5001221
vt 0.6152626 0.5001221
vt 0.6152626 0.599878
vt 0.5385836 0.599878
vt 0.6155067 0.5001221
vt 0.6921856 0.5001221
vt 0.6921856 0.599878
vt 0.6155067 0.599878
vt 0.6924298 0.5001221
vt 0.7691087 0.5001221
vt 0.7691087 0.599878
vt 0.6924298 0.599878
vt 0.0001220703 0.400122
vt 0.07680101 0.400122
vt 0.07680101 0.4998779
vt 0.0001220703 0.4998779
vt 0.07704515 0.400122
vt 0.1537241 0.400122
vt 0.1537241 0.4998779
vt 0.07704515 0.4998779
vt 0.1539682 0.400122
vt 0.2306472 0.400122
vt 0.2306472 0.4998779
vt 0.1539682 0.4998779
vt 0.2308913 0.400122
vt 0.3075702 0.400122
vt 0.3075702 0.4998779
vt 0.2308913 0.4998779
vt 0.3078144 0.400122
vt 0.3844933 0.400122
vt 0.3844933 0.4998779
vt 0.3078144 0.4998779
vt 0.3847375 0.400122
vt 0.4614164 0.400122
vt 0.4614164 0.4998779
vt 0.3847375 0.4998779
vt 0.4616605 0.400122
vt 0.5383395 0.400122
vt 0.5383395 0.4998779
vt 0.4616605 0.4998779
vt 0.5385836 0.400122
vt 0.6152626 0.400122
vt 0.6152626 0.4998779
vt 0.5385836 0.4998779
vt 0.6155067 0.400122
vt 0.6921856 0.400122
vt 0.6921856 0.4998779
vt 0.6155067 0.4998779
vt 0.6924298 0.400122
vt 0.7691087 0.400122
vt 0.7691087 0.4998779
vt 0.6924298 0.4998779
vt 0.0001220703 0.3001221
vt 0.07680101 0.3001221
vt 0.07680101 0.3998779
vt 0.0001220703 0.3998779
vt 0.07704515 0.3001221
vt 0.1537241 0.3001221
vt 0.1537241 0.3998779
vt 0.07704515 0.3998779
vt 0.1539682 0.3001221
vt 0.2306472 0.3001221
vt 0.2306472 0.3998779
vt 0.1539682 0.3998779
vt 0.2308913 0.3001221
vt 0.3075702 0.3001221
vt 0.3075702 0.3998779
vt 0.2308913 0.3998779
vt 0.3078144 0.3001221
vt 0.3844933 0.3001221
vt 0.3844933 0.3998779
vt 0.3078144 0.3998779
vt 0.3847375 0.3001221
vt 0.4614164 0.3001221
vt 0.4614164 0.3998779
vt 0.3847375 0.3998779
vt 0.4616605 0.3001221
vt 0.5383395 0.3001221
vt 0.5383395 0.3998779
vt 0.4616605 0.3998779
vt 0.5385836 0.3001221
vt 0.6152626 0.3001221
vt 0.6152626 0.3998779
vt 0.5385836 0.3998779
vt 0.6155067 0.3001221
vt 0.6921856 0.3001221
vt 0.6921856 0.3998779
vt 0.6155067 0.3998779
vt 0.6924298 0.3001221
vt 0.7691087 0.3001221
vt 0.7691087 0.3998779
vt 0.6924298 0.3998779
vt 0.0001220703 0.2001221
vt 0.07680101 0.2001221
vt 0.07680101 0.2998779
vt 0.0001220703 0.2998779
vt 0.07704515 0.2001221
vt 0.1537241 0.2001221
vt 0.1537241 0.2998779
vt 0.07704515 0.2998779
vt 0.1539682 0.2001221
vt 0.2306472 0.2001221
vt 0.2306472 0.2998779
vt 0.1539682 0.2998779
vt 0.2308913 0.2001221
vt 0.3075702 0.2001221
vt 0.3075702 0.2998779
vt 0.2308913 0.2998779
vt 0.3078144 0.2001221
vt 0.3844933 0.2001221
vt 0.3844933 0.2998779
vt 0.3078144 0.2998779
vt 0.3847375 0.2001221
vt 0.4614164 0.2001221
vt 0.4614164 0.2998779
vt 0.3847375 0.2998779
vt 0.4616605 0.2001221
vt 0.5383395 0.2001221
vt 0.5383395 0.2998779
vt 0.4616605 0.2998779
vt 0.5385836 0.2001221
vt 0.6152626 0.2001221
vt 0.6152626 0.2998779
vt 0.5385836 0.2998779
vt 0.6155067 0.2001221
vt 0.6921856 0.2001221
vt 0.6921856 0.2998779
vt 0.6155067 0.2998779
vt 0.6924298 0.2001221
vt 0.7691087 0.2001221
vt 0.7691087 0.2998779
vt 0.6924298 0.2998779
vt 0.0001220703 0.1001221
vt 0.07680101 0.1001221
vt 0.07680101 0.1998779
vt 0.0001220703 0.1998779
vt 0.07704515 0.1001221
vt 0.1537241 0.1001221
vt 0.1537241 0.1998779
vt 0.07704515 0.1998779
vt 0.1539682 0.1001221
vt 0.2306472 0.1001221
vt 0.2306472 0.1998779
vt 0.1539682 0.1998779
vt 0.2308913 0.1001221
vt 0.3075702 0.1001221
vt 0.3075702 0.1998779
vt 0.2308913 0.1998779
vt 0.3078144 0.1001221
vt 0.3844933 0.1001221
vt 0.3844933 0.1998779
vt 0.3078144 0.1998779
vt 0.3847375 0.1001221
vt 0.4614164 0.1001221
vt 0.4614164 0.1998779
vt 0.3847375 0.1998779
vt 0.4616605 0.1001221
vt 0.5383395 0.1001221
vt 0.5383395 0.1998779
vt 0.4616605 0.1998779
vt 0.5385836 0.1001221
vt 0.6152626 0.1001221
vt 0.6152626 0.1998779
vt 0.5385836 0.1998779
vt 0.6155067 0.1001221
vt 0.6921856 0.1001221
vt 0.6921856 0.1998779
vt 0.6155067 0.1998779
vt 0.6924298 0.1001221
vt 0.7691087 0.1001221
vt 0.7691087 0.1998779
vt 0.6924298 0.1998779
vt 0.3078144 0.0001220703
vt 0.3844933 0.0001220703
vt 0.3844933 0.09987795
vt 0.3078144 0.09987795

# Normal
vn 0 0 -1

# Mesh description
g Island-Test_mesh_0023

# Faces
f 1/1/1 2/2/1 3/3/1 4/4/1
f 5/5/1 6/6/1 7/7/1 8/8/1
f 9/9/1 10/10/1 11/11/1 12/12/1
f 13/13/1 14/14/1 15/15/1 16/16/1
f 17/17/1 18/18/1 19/19/1 20/20/1
f 21/21/1 22/22/1 23/23/1 24/24/1
f 25/25/1 26/26/1 27/27/1 28/28/1
f 29/29/1 30/30/1 31/31/1 32/32/1
f 33/33/1 34/34/1 35/35/1 36/36/1
f 37/37/1 38/38/1 39/39/1 40/40/1
f 41/41/1 42/42/1 43/43/1 44/44/1
f 45/45/1 46/46/1 47/47/1 48/48/1
f 49/49/1 50/50/1 51/51/1 52/52/1
f 53/53/1 54/54/1 55/55/1 56/56/1
f 57/57/1 58/58/1 59/59/1 60/60/1
f 61/61/1 62/62/1 63/63/1 64/64/1
f 65/65/1 66/66/1 67/67/1 68/68/1
f 69/69/1 70/70/1 71/71/1 72/72/1
f 73/73/1 74/74/1 75/75/1 76/76/1
f 77/77/1 78/78/1 79/79/1 80/80/1
f 81/81/1 82/82/1 83/83/1 84/84/1
f 85/85/1 86/86/1 87/87/1 88/88/1
f 89/89/1 90/90/1 91/91/1 92/92/1
f 93/93/1 94/94/1 95/95/1 96/96/1
f 97/97/1 98/98/1 99/99/1 100/100/1
f 101/101/1 102/102/1 103/103/1 104/104/1
f 105/105/1 106/106/1 107/107/1 108/108/1
f 109/109/1 110/110/1 111/111/1 112/112/1
f 113/113/1 114/114/1 115/115/1 116/116/1
f 117/117/1 118/118/1 119/119/1 120/120/1
f 121/121/1 122/122/1 123/123/1 124/124/1
f 125/125/1 126/126/1 127/127/1 128/128/1
f 129/129/1 130/130/1 131/131/1 132/132/1
f 133/133/1 134/134/1 135/135/1 136/136/1
f 137/137/1 138/138/1 139/139/1 140/140/1
f 141/141/1 142/142/1 143/143/1 144/144/1
f 145/145/1 146/146/1 147/147/1 148/148/1
f 149/149/1 150/150/1 151/151/1 152/152/1
f 153/153/1 154/154/1 155/155/1 156/156/1
f 157/157/1 158/158/1 159/159/1 160/160/1
f 161/161/1 162/162/1 163/163/1 164/164/1
f 165/165/1 166/166/1 167/167/1 168/168/1
f 169/169/1 170/170/1 171/171/1 172/172/1
f 173/173/1 174/174/1 175/175/1 176/176/1
f 177/177/1 178/178/1 179/179/1 180/180/1
f 181/181/1 182/182/1 183/183/1 184/184/1
f 185/185/1 186/186/1 187/187/1 188/188/1
f 189/189/1 190/190/1 191/191/1 192/192/1
f 193/193/1 194/194/1 195/195/1 196/196/1
f 197/197/1 198/198/1 199/199/1 200/200/1
f 201/201/1 202/202/1 203/203/1 204/204/1
f 205/205/1 206/206/1 207/207/1 208/208/1
f 209/209/1 210/210/1 211/211/1 212/212/1
f 213/213/1 214/214/1 215/215/1 216/216/1
f 217/217/1 218/218/1 219/219/1 220/220/1
f 221/221/1 222/222/1 223/223/1 224/224/1
f 225/225/1 226/226/1 227/227/1 228/228/1
f 229/229/1 230/230/1 231/231/1 232/232/1
f 233/233/1 234/234/1 235/235/1 236/236/1
f 237/237/1 238/238/1 239/239/1 240/240/1
f 241/241/1 242/242/1 243/243/1 244/244/1
f 245/245/1 246/246/1 247/247/1 248/248/1

