# Tiled2Unity generated file. Do not modify by hand.
# Wavefront file for 'Island-Test_mesh_0016.obj'

# Vertices (Count = 56)
v -109 -82 0
v -110 -82 0
v -110 -81 0
v -109 -81 0
v -109 -85 0
v -110 -85 0
v -110 -84 0
v -109 -84 0
v -108 -86 0
v -109 -86 0
v -109 -85 0
v -108 -85 0
v -113 -89 0
v -114 -89 0
v -114 -88 0
v -113 -88 0
v -108 -92 0
v -109 -92 0
v -109 -91 0
v -108 -91 0
v -167 -121 0
v -168 -121 0
v -168 -120 0
v -167 -120 0
v -165 -123 0
v -166 -123 0
v -166 -122 0
v -165 -122 0
v -167 -123 0
v -168 -123 0
v -168 -122 0
v -167 -122 0
v -169 -123 0
v -170 -123 0
v -170 -122 0
v -169 -122 0
v -169 -124 0
v -170 -124 0
v -170 -123 0
v -169 -123 0
v -168 -125 0
v -169 -125 0
v -169 -124 0
v -168 -124 0
v -170 -125 0
v -171 -125 0
v -171 -124 0
v -170 -124 0
v -170 -126 0
v -171 -126 0
v -171 -125 0
v -170 -125 0
v -171 -126 0
v -172 -126 0
v -172 -125 0
v -171 -125 0

# Texture cooridinates (Count = 4)
vt 0.9998779 0.0001220703
vt 0.9998779 0.9998779
vt 0.0001220703 0.9998779
vt 0.0001220703 0.0001220703

# Normal
vn 0 0 -1

# Mesh description
g Island-Test_mesh_0016

# Faces
f 1/1/1 2/2/1 3/3/1 4/4/1
f 5/2/1 6/3/1 7/4/1 8/1/1
f 9/1/1 10/2/1 11/3/1 12/4/1
f 13/4/1 14/1/1 15/2/1 16/3/1
f 17/1/1 18/2/1 19/3/1 20/4/1
f 21/1/1 22/2/1 23/3/1 24/4/1
f 25/3/1 26/4/1 27/1/1 28/2/1
f 29/4/1 30/1/1 31/2/1 32/3/1
f 33/4/1 34/1/1 35/2/1 36/3/1
f 37/1/1 38/2/1 39/3/1 40/4/1
f 41/4/1 42/1/1 43/2/1 44/3/1
f 45/2/1 46/3/1 47/4/1 48/1/1
f 49/1/1 50/2/1 51/3/1 52/4/1
f 53/4/1 54/1/1 55/2/1 56/3/1

