# Tiled2Unity generated file. Do not modify by hand.
# Wavefront file for 'Island-Test_mesh_0024.obj'

# Vertices (Count = 88)
v -98 -227 0
v -99 -227 0
v -99 -226 0
v -98 -226 0
v -99 -227 0
v -100 -227 0
v -100 -226 0
v -99 -226 0
v -138 -231 0
v -139 -231 0
v -139 -230 0
v -138 -230 0
v -139 -231 0
v -140 -231 0
v -140 -230 0
v -139 -230 0
v -104 -236 0
v -105 -236 0
v -105 -235 0
v -104 -235 0
v -105 -236 0
v -106 -236 0
v -106 -235 0
v -105 -235 0
v -125 -236 0
v -126 -236 0
v -126 -235 0
v -125 -235 0
v -126 -236 0
v -127 -236 0
v -127 -235 0
v -126 -235 0
v -124 -237 0
v -125 -237 0
v -125 -236 0
v -124 -236 0
v -125 -237 0
v -126 -237 0
v -126 -236 0
v -125 -236 0
v -127 -237 0
v -128 -237 0
v -128 -236 0
v -127 -236 0
v -128 -237 0
v -129 -237 0
v -129 -236 0
v -128 -236 0
v -120 -238 0
v -121 -238 0
v -121 -237 0
v -120 -237 0
v -121 -238 0
v -122 -238 0
v -122 -237 0
v -121 -237 0
v -125 -238 0
v -126 -238 0
v -126 -237 0
v -125 -237 0
v -126 -238 0
v -127 -238 0
v -127 -237 0
v -126 -237 0
v -113 -241 0
v -114 -241 0
v -114 -240 0
v -113 -240 0
v -114 -241 0
v -115 -241 0
v -115 -240 0
v -114 -240 0
v -129 -242 0
v -130 -242 0
v -130 -241 0
v -129 -241 0
v -130 -242 0
v -131 -242 0
v -131 -241 0
v -130 -241 0
v -125 -244 0
v -126 -244 0
v -126 -243 0
v -125 -243 0
v -126 -244 0
v -127 -244 0
v -127 -243 0
v -126 -243 0

# Texture cooridinates (Count = 8)
vt 0.5751221 0.5001221
vt 0.599878 0.5001221
vt 0.599878 0.5383395
vt 0.5751221 0.5383395
vt 0.6001221 0.5001221
vt 0.6248779 0.5001221
vt 0.6248779 0.5383395
vt 0.6001221 0.5383395

# Normal
vn 0 0 -1

# Mesh description
g Island-Test_mesh_0024

# Faces
f 1/1/1 2/2/1 3/3/1 4/4/1
f 5/5/1 6/6/1 7/7/1 8/8/1
f 9/1/1 10/2/1 11/3/1 12/4/1
f 13/5/1 14/6/1 15/7/1 16/8/1
f 17/1/1 18/2/1 19/3/1 20/4/1
f 21/5/1 22/6/1 23/7/1 24/8/1
f 25/1/1 26/2/1 27/3/1 28/4/1
f 29/5/1 30/6/1 31/7/1 32/8/1
f 33/1/1 34/2/1 35/3/1 36/4/1
f 37/5/1 38/6/1 39/7/1 40/8/1
f 41/1/1 42/2/1 43/3/1 44/4/1
f 45/5/1 46/6/1 47/7/1 48/8/1
f 49/1/1 50/2/1 51/3/1 52/4/1
f 53/5/1 54/6/1 55/7/1 56/8/1
f 57/1/1 58/2/1 59/3/1 60/4/1
f 61/5/1 62/6/1 63/7/1 64/8/1
f 65/1/1 66/2/1 67/3/1 68/4/1
f 69/5/1 70/6/1 71/7/1 72/8/1
f 73/1/1 74/2/1 75/3/1 76/4/1
f 77/5/1 78/6/1 79/7/1 80/8/1
f 81/1/1 82/2/1 83/3/1 84/4/1
f 85/5/1 86/6/1 87/7/1 88/8/1

