# Tiled2Unity generated file. Do not modify by hand.
# Wavefront file for 'Island-Test_mesh_0015.obj'

# Vertices (Count = 136)
v -66 -50 0
v -67 -50 0
v -67 -49 0
v -66 -49 0
v -84 -52 0
v -85 -52 0
v -85 -51 0
v -84 -51 0
v -94 -66 0
v -95 -66 0
v -95 -65 0
v -94 -65 0
v -61 -70 0
v -62 -70 0
v -62 -69 0
v -61 -69 0
v -88 -76 0
v -89 -76 0
v -89 -75 0
v -88 -75 0
v -73 -81 0
v -74 -81 0
v -74 -80 0
v -73 -80 0
v -113 -85 0
v -114 -85 0
v -114 -84 0
v -113 -84 0
v -113 -86 0
v -114 -86 0
v -114 -85 0
v -113 -85 0
v -109 -88 0
v -110 -88 0
v -110 -87 0
v -109 -87 0
v -66 -95 0
v -67 -95 0
v -67 -94 0
v -66 -94 0
v -172 -97 0
v -173 -97 0
v -173 -96 0
v -172 -96 0
v -160 -103 0
v -161 -103 0
v -161 -102 0
v -160 -102 0
v -161 -103 0
v -162 -103 0
v -162 -102 0
v -161 -102 0
v -162 -103 0
v -163 -103 0
v -163 -102 0
v -162 -102 0
v -163 -103 0
v -164 -103 0
v -164 -102 0
v -163 -102 0
v -160 -104 0
v -161 -104 0
v -161 -103 0
v -160 -103 0
v -161 -104 0
v -162 -104 0
v -162 -103 0
v -161 -103 0
v -162 -104 0
v -163 -104 0
v -163 -103 0
v -162 -103 0
v -163 -104 0
v -164 -104 0
v -164 -103 0
v -163 -103 0
v -164 -104 0
v -165 -104 0
v -165 -103 0
v -164 -103 0
v -161 -105 0
v -162 -105 0
v -162 -104 0
v -161 -104 0
v -162 -105 0
v -163 -105 0
v -163 -104 0
v -162 -104 0
v -163 -105 0
v -164 -105 0
v -164 -104 0
v -163 -104 0
v -165 -119 0
v -166 -119 0
v -166 -118 0
v -165 -118 0
v -160 -123 0
v -161 -123 0
v -161 -122 0
v -160 -122 0
v -141 -129 0
v -142 -129 0
v -142 -128 0
v -141 -128 0
v -59 -139 0
v -60 -139 0
v -60 -138 0
v -59 -138 0
v -105 -148 0
v -106 -148 0
v -106 -147 0
v -105 -147 0
v -211 -157 0
v -212 -157 0
v -212 -156 0
v -211 -156 0
v -84 -181 0
v -85 -181 0
v -85 -180 0
v -84 -180 0
v -113 -205 0
v -114 -205 0
v -114 -204 0
v -113 -204 0
v -87 -215 0
v -88 -215 0
v -88 -214 0
v -87 -214 0
v -146 -220 0
v -147 -220 0
v -147 -219 0
v -146 -219 0
v -146 -221 0
v -147 -221 0
v -147 -220 0
v -146 -220 0

# Texture cooridinates (Count = 4)
vt 0.0001220703 0.0001220703
vt 0.9998779 0.0001220703
vt 0.9998779 0.9998779
vt 0.0001220703 0.9998779

# Normal
vn 0 0 -1

# Mesh description
g Island-Test_mesh_0015

# Faces
f 1/1/1 2/2/1 3/3/1 4/4/1
f 5/1/1 6/2/1 7/3/1 8/4/1
f 9/1/1 10/2/1 11/3/1 12/4/1
f 13/1/1 14/2/1 15/3/1 16/4/1
f 17/1/1 18/2/1 19/3/1 20/4/1
f 21/1/1 22/2/1 23/3/1 24/4/1
f 25/1/1 26/2/1 27/3/1 28/4/1
f 29/1/1 30/2/1 31/3/1 32/4/1
f 33/1/1 34/2/1 35/3/1 36/4/1
f 37/1/1 38/2/1 39/3/1 40/4/1
f 41/1/1 42/2/1 43/3/1 44/4/1
f 45/1/1 46/2/1 47/3/1 48/4/1
f 49/1/1 50/2/1 51/3/1 52/4/1
f 53/1/1 54/2/1 55/3/1 56/4/1
f 57/1/1 58/2/1 59/3/1 60/4/1
f 61/1/1 62/2/1 63/3/1 64/4/1
f 65/1/1 66/2/1 67/3/1 68/4/1
f 69/1/1 70/2/1 71/3/1 72/4/1
f 73/1/1 74/2/1 75/3/1 76/4/1
f 77/1/1 78/2/1 79/3/1 80/4/1
f 81/1/1 82/2/1 83/3/1 84/4/1
f 85/1/1 86/2/1 87/3/1 88/4/1
f 89/1/1 90/2/1 91/3/1 92/4/1
f 93/1/1 94/2/1 95/3/1 96/4/1
f 97/1/1 98/2/1 99/3/1 100/4/1
f 101/1/1 102/2/1 103/3/1 104/4/1
f 105/1/1 106/2/1 107/3/1 108/4/1
f 109/1/1 110/2/1 111/3/1 112/4/1
f 113/1/1 114/2/1 115/3/1 116/4/1
f 117/1/1 118/2/1 119/3/1 120/4/1
f 121/1/1 122/2/1 123/3/1 124/4/1
f 125/1/1 126/2/1 127/3/1 128/4/1
f 129/1/1 130/2/1 131/3/1 132/4/1
f 133/1/1 134/2/1 135/3/1 136/4/1

