# Tiled2Unity generated file. Do not modify by hand.
# Wavefront file for 'Island-Test_mesh_0015.obj'

# Vertices (Count = 8)
v -168 -125 0
v -169 -125 0
v -169 -124 0
v -168 -124 0
v -171 -125 0
v -172 -125 0
v -172 -124 0
v -171 -124 0

# Texture cooridinates (Count = 4)
vt 0.9998779 0.0001220703
vt 0.9998779 0.9998779
vt 0.0001220703 0.9998779
vt 0.0001220703 0.0001220703

# Normal
vn 0 0 -1

# Mesh description
g Island-Test_mesh_0015

# Faces
f 1/1/1 2/2/1 3/3/1 4/4/1
f 5/4/1 6/1/1 7/2/1 8/3/1

