# Tiled2Unity generated file. Do not modify by hand.
# Wavefront file for 'Island-Test_mesh_0011.obj'

# Vertices (Count = 88)
v -89 -40 0
v -90 -40 0
v -90 -39 0
v -89 -39 0
v -80 -52 0
v -81 -52 0
v -81 -51 0
v -80 -51 0
v -60 -63 0
v -61 -63 0
v -61 -62 0
v -60 -62 0
v -88 -71 0
v -89 -71 0
v -89 -70 0
v -88 -70 0
v -66 -77 0
v -67 -77 0
v -67 -76 0
v -66 -76 0
v -123 -81 0
v -124 -81 0
v -124 -80 0
v -123 -80 0
v -68 -86 0
v -69 -86 0
v -69 -85 0
v -68 -85 0
v -75 -97 0
v -76 -97 0
v -76 -96 0
v -75 -96 0
v -67 -101 0
v -68 -101 0
v -68 -100 0
v -67 -100 0
v -163 -122 0
v -164 -122 0
v -164 -121 0
v -163 -121 0
v -60 -133 0
v -61 -133 0
v -61 -132 0
v -60 -132 0
v -63 -138 0
v -64 -138 0
v -64 -137 0
v -63 -137 0
v -51 -143 0
v -52 -143 0
v -52 -142 0
v -51 -142 0
v -100 -143 0
v -101 -143 0
v -101 -142 0
v -100 -142 0
v -69 -156 0
v -70 -156 0
v -70 -155 0
v -69 -155 0
v -85 -173 0
v -86 -173 0
v -86 -172 0
v -85 -172 0
v -89 -177 0
v -90 -177 0
v -90 -176 0
v -89 -176 0
v -80 -188 0
v -81 -188 0
v -81 -187 0
v -80 -187 0
v -106 -195 0
v -107 -195 0
v -107 -194 0
v -106 -194 0
v -113 -201 0
v -114 -201 0
v -114 -200 0
v -113 -200 0
v -96 -206 0
v -97 -206 0
v -97 -205 0
v -96 -205 0
v -106 -208 0
v -107 -208 0
v -107 -207 0
v -106 -207 0

# Texture cooridinates (Count = 4)
vt 0.0001220703 0.0001220703
vt 0.9998779 0.0001220703
vt 0.9998779 0.9998779
vt 0.0001220703 0.9998779

# Normal
vn 0 0 -1

# Mesh description
g Island-Test_mesh_0011

# Faces
f 1/1/1 2/2/1 3/3/1 4/4/1
f 5/1/1 6/2/1 7/3/1 8/4/1
f 9/1/1 10/2/1 11/3/1 12/4/1
f 13/1/1 14/2/1 15/3/1 16/4/1
f 17/1/1 18/2/1 19/3/1 20/4/1
f 21/1/1 22/2/1 23/3/1 24/4/1
f 25/1/1 26/2/1 27/3/1 28/4/1
f 29/1/1 30/2/1 31/3/1 32/4/1
f 33/1/1 34/2/1 35/3/1 36/4/1
f 37/1/1 38/2/1 39/3/1 40/4/1
f 41/1/1 42/2/1 43/3/1 44/4/1
f 45/1/1 46/2/1 47/3/1 48/4/1
f 49/1/1 50/2/1 51/3/1 52/4/1
f 53/1/1 54/2/1 55/3/1 56/4/1
f 57/1/1 58/2/1 59/3/1 60/4/1
f 61/1/1 62/2/1 63/3/1 64/4/1
f 65/1/1 66/2/1 67/3/1 68/4/1
f 69/1/1 70/2/1 71/3/1 72/4/1
f 73/1/1 74/2/1 75/3/1 76/4/1
f 77/1/1 78/2/1 79/3/1 80/4/1
f 81/1/1 82/2/1 83/3/1 84/4/1
f 85/1/1 86/2/1 87/3/1 88/4/1

