# Tiled2Unity generated file. Do not modify by hand.
# Wavefront file for 'Island-Test_mesh_0017.obj'

# Vertices (Count = 64)
v -113 -83 0
v -114 -83 0
v -114 -82 0
v -113 -82 0
v -114 -83 0
v -115 -83 0
v -115 -82 0
v -114 -82 0
v -114 -84 0
v -115 -84 0
v -115 -83 0
v -114 -83 0
v -166 -121 0
v -167 -121 0
v -167 -120 0
v -166 -120 0
v -166 -122 0
v -167 -122 0
v -167 -121 0
v -166 -121 0
v -167 -122 0
v -168 -122 0
v -168 -121 0
v -167 -121 0
v -168 -122 0
v -169 -122 0
v -169 -121 0
v -168 -121 0
v -166 -123 0
v -167 -123 0
v -167 -122 0
v -166 -122 0
v -168 -123 0
v -169 -123 0
v -169 -122 0
v -168 -122 0
v -170 -123 0
v -171 -123 0
v -171 -122 0
v -170 -122 0
v -167 -124 0
v -168 -124 0
v -168 -123 0
v -167 -123 0
v -168 -124 0
v -169 -124 0
v -169 -123 0
v -168 -123 0
v -170 -124 0
v -171 -124 0
v -171 -123 0
v -170 -123 0
v -169 -125 0
v -170 -125 0
v -170 -124 0
v -169 -124 0
v -171 -125 0
v -172 -125 0
v -172 -124 0
v -171 -124 0
v -169 -126 0
v -170 -126 0
v -170 -125 0
v -169 -125 0

# Texture cooridinates (Count = 4)
vt 0.9998779 0.9998779
vt 0.0001220703 0.9998779
vt 0.0001220703 0.0001220703
vt 0.9998779 0.0001220703

# Normal
vn 0 0 -1

# Mesh description
g Island-Test_mesh_0017

# Faces
f 1/1/1 2/2/1 3/3/1 4/4/1
f 5/2/1 6/3/1 7/4/1 8/1/1
f 9/1/1 10/2/1 11/3/1 12/4/1
f 13/4/1 14/1/1 15/2/1 16/3/1
f 17/4/1 18/1/1 19/2/1 20/3/1
f 21/4/1 22/1/1 23/2/1 24/3/1
f 25/4/1 26/1/1 27/2/1 28/3/1
f 29/3/1 30/4/1 31/1/1 32/2/1
f 33/4/1 34/1/1 35/2/1 36/3/1
f 37/4/1 38/1/1 39/2/1 40/3/1
f 41/4/1 42/1/1 43/2/1 44/3/1
f 45/4/1 46/1/1 47/2/1 48/3/1
f 49/1/1 50/2/1 51/3/1 52/4/1
f 53/1/1 54/2/1 55/3/1 56/4/1
f 57/3/1 58/4/1 59/1/1 60/2/1
f 61/4/1 62/1/1 63/2/1 64/3/1

