# Tiled2Unity generated file. Do not modify by hand.
# Wavefront file for 'Island-Test_mesh_0020.obj'

# Vertices (Count = 16)
v -111 -41 0
v -112 -41 0
v -112 -40 0
v -111 -40 0
v -116 -41 0
v -117 -41 0
v -117 -40 0
v -116 -40 0
v -113 -46 0
v -114 -46 0
v -114 -45 0
v -113 -45 0
v -118 -46 0
v -119 -46 0
v -119 -45 0
v -118 -45 0

# Texture cooridinates (Count = 4)
vt 0.0001220703 0.0001220703
vt 0.9998779 0.0001220703
vt 0.9998779 0.9998779
vt 0.0001220703 0.9998779

# Normal
vn 0 0 -1

# Mesh description
g Island-Test_mesh_0020

# Faces
f 1/1/1 2/2/1 3/3/1 4/4/1
f 5/1/1 6/2/1 7/3/1 8/4/1
f 9/1/1 10/2/1 11/3/1 12/4/1
f 13/1/1 14/2/1 15/3/1 16/4/1

