# Tiled2Unity generated file. Do not modify by hand.
# Wavefront file for 'roomtest_mesh_0024.obj'

<<<<<<< HEAD
# Vertices (Count = 4)
v -11 -3 0
v -12 -3 0
v -12 -2 0
v -11 -2 0
=======
# Vertices (Count = 12)
v -8 -3 0
v -9 -3 0
v -9 -2 0
v -8 -2 0
v -9 -3 0
v -10 -3 0
v -10 -2 0
v -9 -2 0
v -10 -3 0
v -11 -3 0
v -11 -2 0
v -10 -2 0
>>>>>>> a41ffa8d0975bd625a4c2f4e6cf0aa50f523f151

# Texture cooridinates (Count = 4)
vt 0.0001220703 0.0001220703
vt 0.9998779 0.0001220703
vt 0.9998779 0.9998779
vt 0.0001220703 0.9998779

# Normal
vn 0 0 -1

# Mesh description
g roomtest_mesh_0024

# Faces
f 1/1/1 2/2/1 3/3/1 4/4/1
<<<<<<< HEAD
=======
f 5/1/1 6/2/1 7/3/1 8/4/1
f 9/1/1 10/2/1 11/3/1 12/4/1
>>>>>>> a41ffa8d0975bd625a4c2f4e6cf0aa50f523f151

