# Tiled2Unity generated file. Do not modify by hand.
# Wavefront file for 'roomtest_mesh_0003.obj'

<<<<<<< HEAD
# Vertices (Count = 12)
v -4 -1 0
v -5 -1 0
v -5 0 0
v -4 0 0
v -5 -1 0
v -6 -1 0
v -6 0 0
v -5 0 0
v -6 -1 0
v -7 -1 0
v -7 0 0
v -6 0 0

# Texture cooridinates (Count = 4)
vt 0.0001220703 0.0001220703
vt 0.9998779 0.0001220703
vt 0.9998779 0.9998779
vt 0.0001220703 0.9998779
=======
# Vertices (Count = 88)
v 0 -1 0
v -1 -1 0
v -1 0 0
v 0 0 0
v -1 -1 0
v -2 -1 0
v -2 0 0
v -1 0 0
v -2 -1 0
v -3 -1 0
v -3 0 0
v -2 0 0
v -3 -1 0
v -4 -1 0
v -4 0 0
v -3 0 0
v 0 -2 0
v -1 -2 0
v -1 -1 0
v 0 -1 0
v -1 -2 0
v -2 -2 0
v -2 -1 0
v -1 -1 0
v -2 -2 0
v -3 -2 0
v -3 -1 0
v -2 -1 0
v -3 -2 0
v -4 -2 0
v -4 -1 0
v -3 -1 0
v 0 -3 0
v -1 -3 0
v -1 -2 0
v 0 -2 0
v -1 -3 0
v -2 -3 0
v -2 -2 0
v -1 -2 0
v -2 -3 0
v -3 -3 0
v -3 -2 0
v -2 -2 0
v -3 -3 0
v -4 -3 0
v -4 -2 0
v -3 -2 0
v -2 -6 0
v -3 -6 0
v -3 -5 0
v -2 -5 0
v -3 -6 0
v -4 -6 0
v -4 -5 0
v -3 -5 0
v -5 -6 0
v -6 -6 0
v -6 -5 0
v -5 -5 0
v -1 -7 0
v -2 -7 0
v -2 -6 0
v -1 -6 0
v -6 -7 0
v -7 -7 0
v -7 -6 0
v -6 -6 0
v -9 -7 0
v -10 -7 0
v -10 -6 0
v -9 -6 0
v -10 -7 0
v -11 -7 0
v -11 -6 0
v -10 -6 0
v -11 -7 0
v -12 -7 0
v -12 -6 0
v -11 -6 0
v -6 -8 0
v -7 -8 0
v -7 -7 0
v -6 -7 0
v -8 -10 0
v -9 -10 0
v -9 -9 0
v -8 -9 0

# Texture cooridinates (Count = 48)
vt 0.3637584 0.4286935
vt 0.4544234 0.4286935
vt 0.4544234 0.5713065
vt 0.3637584 0.5713065
vt 0.4546675 0.4286935
vt 0.5453325 0.4286935
vt 0.5453325 0.5713065
vt 0.4546675 0.5713065
vt 0.3637584 0.2858363
vt 0.4544234 0.2858363
vt 0.4544234 0.4284493
vt 0.3637584 0.4284493
vt 0.4546675 0.2858363
vt 0.5453325 0.2858363
vt 0.5453325 0.4284493
vt 0.4546675 0.4284493
vt 0.3637584 0.1429792
vt 0.4544234 0.1429792
vt 0.4544234 0.2855922
vt 0.3637584 0.2855922
vt 0.4546675 0.1429792
vt 0.5453325 0.1429792
vt 0.5453325 0.2855922
vt 0.4546675 0.2855922
vt 0.4546675 0.8572649
vt 0.5453325 0.8572649
vt 0.5453325 0.9998779
vt 0.4546675 0.9998779
vt 0.4546675 0.7144078
vt 0.5453325 0.7144078
vt 0.5453325 0.8570208
vt 0.4546675 0.8570208
vt 0.3637584 0.5715506
vt 0.4544234 0.5715506
vt 0.4544234 0.7141637
vt 0.3637584 0.7141637
vt 0.3637584 0.8572649
vt 0.4544234 0.8572649
vt 0.4544234 0.9998779
vt 0.3637584 0.9998779
vt 0.3637584 0.7144078
vt 0.4544234 0.7144078
vt 0.4544234 0.8570208
vt 0.3637584 0.8570208
vt 0.4546675 0.5715506
vt 0.5453325 0.5715506
vt 0.5453325 0.7141637
vt 0.4546675 0.7141637
>>>>>>> a41ffa8d0975bd625a4c2f4e6cf0aa50f523f151

# Normal
vn 0 0 -1

# Mesh description
g roomtest_mesh_0003

# Faces
f 1/1/1 2/2/1 3/3/1 4/4/1
<<<<<<< HEAD
f 5/1/1 6/2/1 7/3/1 8/4/1
f 9/1/1 10/2/1 11/3/1 12/4/1
=======
f 5/5/1 6/6/1 7/7/1 8/8/1
f 9/1/1 10/2/1 11/3/1 12/4/1
f 13/5/1 14/6/1 15/7/1 16/8/1
f 17/9/1 18/10/1 19/11/1 20/12/1
f 21/13/1 22/14/1 23/15/1 24/16/1
f 25/9/1 26/10/1 27/11/1 28/12/1
f 29/13/1 30/14/1 31/15/1 32/16/1
f 33/17/1 34/18/1 35/19/1 36/20/1
f 37/21/1 38/22/1 39/23/1 40/24/1
f 41/17/1 42/18/1 43/19/1 44/20/1
f 45/21/1 46/22/1 47/23/1 48/24/1
f 49/25/1 50/26/1 51/27/1 52/28/1
f 53/29/1 54/30/1 55/31/1 56/32/1
f 57/33/1 58/34/1 59/35/1 60/36/1
f 61/37/1 62/38/1 63/39/1 64/40/1
f 65/25/1 66/26/1 67/27/1 68/28/1
f 69/33/1 70/34/1 71/35/1 72/36/1
f 73/25/1 74/26/1 75/27/1 76/28/1
f 77/41/1 78/42/1 79/43/1 80/44/1
f 81/37/1 82/38/1 83/39/1 84/40/1
f 85/45/1 86/46/1 87/47/1 88/48/1
>>>>>>> a41ffa8d0975bd625a4c2f4e6cf0aa50f523f151

