# Tiled2Unity generated file. Do not modify by hand.
# Wavefront file for 'roomtest_mesh_0032.obj'

# Vertices (Count = 32)
v -11 -1 0
v -12 -1 0
v -12 0 0
v -11 0 0
v -11 -2 0
v -12 -2 0
v -12 -1 0
v -11 -1 0
v -11 -3 0
v -12 -3 0
v -12 -2 0
v -11 -2 0
v -11 -4 0
v -12 -4 0
v -12 -3 0
v -11 -3 0
v -11 -6 0
v -12 -6 0
v -12 -5 0
v -11 -5 0
v -11 -7 0
v -12 -7 0
v -12 -6 0
v -11 -6 0
v -11 -8 0
v -12 -8 0
v -12 -7 0
v -11 -7 0
v -11 -9 0
v -12 -9 0
v -12 -8 0
v -11 -8 0

# Texture cooridinates (Count = 4)
vt 0.0001220703 0.0001220703
vt 0.9998779 0.0001220703
vt 0.9998779 0.9998779
vt 0.0001220703 0.9998779

# Normal
vn 0 0 -1

# Mesh description
g roomtest_mesh_0032

# Faces
f 1/1/1 2/2/1 3/3/1 4/4/1
f 5/1/1 6/2/1 7/3/1 8/4/1
f 9/1/1 10/2/1 11/3/1 12/4/1
f 13/1/1 14/2/1 15/3/1 16/4/1
f 17/1/1 18/2/1 19/3/1 20/4/1
f 21/1/1 22/2/1 23/3/1 24/4/1
f 25/1/1 26/2/1 27/3/1 28/4/1
f 29/1/1 30/2/1 31/3/1 32/4/1

