# Tiled2Unity generated file. Do not modify by hand.
# Wavefront file for 'roomtest_mesh_0005.obj'

# Vertices (Count = 40)
v 0 -1 0
v -1 -1 0
v -1 0 0
v 0 0 0
v 0 -2 0
v -1 -2 0
v -1 -1 0
v 0 -1 0
v 0 -3 0
v -1 -3 0
v -1 -2 0
v 0 -2 0
v 0 -4 0
v -1 -4 0
v -1 -3 0
v 0 -3 0
v 0 -5 0
v -1 -5 0
v -1 -4 0
v 0 -4 0
v 0 -6 0
v -1 -6 0
v -1 -5 0
v 0 -5 0
v 0 -7 0
v -1 -7 0
v -1 -6 0
v 0 -6 0
v -5 -8 0
v -6 -8 0
v -6 -7 0
v -5 -7 0
v -5 -9 0
v -6 -9 0
v -6 -8 0
v -5 -8 0
v -5 -10 0
v -6 -10 0
v -6 -9 0
v -5 -9 0

# Texture cooridinates (Count = 8)
vt 0.0001220703 0.5715506
vt 0.09078702 0.5715506
vt 0.09078702 0.7141637
vt 0.0001220703 0.7141637
vt 0.0001220703 0.4286935
vt 0.09078702 0.4286935
vt 0.09078702 0.5713065
vt 0.0001220703 0.5713065

# Normal
vn 0 0 -1

# Mesh description
g roomtest_mesh_0005

# Faces
f 1/1/1 2/2/1 3/3/1 4/4/1
f 5/1/1 6/2/1 7/3/1 8/4/1
f 9/1/1 10/2/1 11/3/1 12/4/1
f 13/1/1 14/2/1 15/3/1 16/4/1
f 17/1/1 18/2/1 19/3/1 20/4/1
f 21/1/1 22/2/1 23/3/1 24/4/1
f 25/5/1 26/6/1 27/7/1 28/8/1
f 29/1/1 30/2/1 31/3/1 32/4/1
f 33/1/1 34/2/1 35/3/1 36/4/1
f 37/5/1 38/6/1 39/7/1 40/8/1

