# Tiled2Unity generated file. Do not modify by hand.
# Wavefront file for 'roomtest_mesh_0020.obj'

# Vertices (Count = 24)
v -6 -2 0
v -7 -2 0
v -7 -1 0
v -6 -1 0
v -6 -3 0
v -7 -3 0
v -7 -2 0
v -6 -2 0
v -9 -4 0
v -10 -4 0
v -10 -3 0
v -9 -3 0
v -2 -7 0
v -3 -7 0
v -3 -6 0
v -2 -6 0
v -6 -7 0
v -7 -7 0
v -7 -6 0
v -6 -6 0
v -7 -8 0
v -8 -8 0
v -8 -7 0
v -7 -7 0

# Texture cooridinates (Count = 4)
vt 0.0001220703 0.0001220703
vt 0.9998779 0.0001220703
vt 0.9998779 0.9998779
vt 0.0001220703 0.9998779

# Normal
vn 0 0 -1

# Mesh description
g roomtest_mesh_0020

# Faces
f 1/1/1 2/2/1 3/3/1 4/4/1
f 5/1/1 6/2/1 7/3/1 8/4/1
f 9/1/1 10/2/1 11/3/1 12/4/1
f 13/1/1 14/2/1 15/3/1 16/4/1
f 17/1/1 18/2/1 19/3/1 20/4/1
f 21/1/1 22/2/1 23/3/1 24/4/1

