# Tiled2Unity generated file. Do not modify by hand.
# Wavefront file for 'roomtest_mesh_0025.obj'

# Vertices (Count = 16)
v -8 -4 0
v -9 -4 0
v -9 -3 0
v -8 -3 0
v -10 -4 0
v -11 -4 0
v -11 -3 0
v -10 -3 0
v -4 -6 0
v -5 -6 0
v -5 -5 0
v -4 -5 0
v -11 -9 0
v -12 -9 0
v -12 -8 0
v -11 -8 0

# Texture cooridinates (Count = 4)
vt 0.0001220703 0.0001220703
vt 0.9998779 0.0001220703
vt 0.9998779 0.9998779
vt 0.0001220703 0.9998779

# Normal
vn 0 0 -1

# Mesh description
g roomtest_mesh_0025

# Faces
f 1/1/1 2/2/1 3/3/1 4/4/1
f 5/1/1 6/2/1 7/3/1 8/4/1
f 9/1/1 10/2/1 11/3/1 12/4/1
f 13/1/1 14/2/1 15/3/1 16/4/1

