# Tiled2Unity generated file. Do not modify by hand.
# Wavefront file for 'roomtest_mesh_0028.obj'

# Vertices (Count = 8)
<<<<<<< HEAD
v -7 -7 0
v -8 -7 0
v -8 -6 0
v -7 -6 0
v -11 -8 0
v -12 -8 0
v -12 -7 0
v -11 -7 0
=======
v -8 -6 0
v -9 -6 0
v -9 -5 0
v -8 -5 0
v -6 -7 0
v -7 -7 0
v -7 -6 0
v -6 -6 0
>>>>>>> a41ffa8d0975bd625a4c2f4e6cf0aa50f523f151

# Texture cooridinates (Count = 4)
vt 0.0001220703 0.0001220703
vt 0.9998779 0.0001220703
vt 0.9998779 0.9998779
vt 0.0001220703 0.9998779

# Normal
vn 0 0 -1

# Mesh description
g roomtest_mesh_0028

# Faces
f 1/1/1 2/2/1 3/3/1 4/4/1
f 5/1/1 6/2/1 7/3/1 8/4/1

